<svg xmlns="http://www.w3.org/2000/svg" width="139.46" height="29.521" viewBox="0 0 139.46 29.521">
  <g id="logo-svg" transform="translate(0.108)">
    <path id="Path_1934" data-name="Path 1934" d="M116.637,12.491a10.073,10.073,0,0,0-.729-1.25c-1.771-2.709-3.646-5.418-5.418-8.126-.729-1.146-.625-1.771.417-2.5.938-.625,1.667-.417,2.292.625,2.709,4.063,5.418,8.231,8.231,12.294a1.881,1.881,0,0,1,.1,2.292c-2.709,4.167-5.313,8.335-8.022,12.606-.729,1.146-1.354,1.354-2.4.625-1.042-.625-1.042-1.25-.417-2.4,1.979-3.021,3.855-6.043,5.834-9.168a4.8,4.8,0,0,0,.521-1.042c-.521,0-.938-.1-1.25-.1h-22.3c-1.146,0-1.459.417-1.354,1.459.1,1.25,0,2.4,0,3.646a2.764,2.764,0,0,0,2.917,3.021q5,.156,10,0c.938,0,1.354.208,1.354,1.25,0,2.6,0,2.6-2.6,2.6H95.383c-4.48,0-6.876-2.292-6.98-6.772-.1-4.9-.1-9.9,0-14.794.1-3.542,1.667-5.522,5.209-6.043C95.7.406,97.884.51,100.072.406h5.418c.729,0,1.146.208,1.042,1.042a25.318,25.318,0,0,0,0,2.813c-.521,0-.938.1-1.354.1H95.488c-2.188,0-3.334,1.042-3.438,3.334v3.334c-.1,1.042.208,1.354,1.354,1.354,4.376-.1,8.647,0,13.023,0h8.751A5.961,5.961,0,0,0,116.637,12.491Z" transform="translate(3.7 0.011)" fill="#fff"/>
    <path id="Path_1935" data-name="Path 1935" d="M41.1,14.554V21.43c-.1,4.063-1.875,6.147-5.73,6.876h-.208c-2.6,0-5.313.313-7.918-.1-3.855-.521-5.938-3.23-6.043-7.085q-.156-6.72,0-13.44c.1-2.6.729-5,3.438-6.147A2.453,2.453,0,0,1,26,1.01a71.987,71.987,0,0,1,9.481-.1C39.227,1.322,41,3.614,41.1,7.469c.1,2.292,0,4.688,0,7.085Zm-3.855,0V7.677c0-2.188-.938-3.126-3.126-3.23a56.455,56.455,0,0,0-5.938,0c-1.979.1-3.021,1.042-3.126,3.021-.1,4.584-.1,9.272,0,13.856,0,2.084,1.042,2.917,3.126,3.021a56.454,56.454,0,0,0,5.938,0c2.292-.1,3.126-1.042,3.126-3.23Z" transform="translate(0.888 0.032)" fill="#fff"/>
    <path id="Path_1936" data-name="Path 1936" d="M0,28.313V24.562c.417,0,.833-.1,1.25-.1h9.377c2.292,0,3.23-.938,3.23-3.23V19.041a2.442,2.442,0,0,0-2.5-2.813,35.227,35.227,0,0,0-4.688-.1,8.458,8.458,0,0,1-4.48-1.146A4.59,4.59,0,0,1-.1,10.81V6.122A5.189,5.189,0,0,1,4.276.808,8.937,8.937,0,0,1,6.672.6h9.9c.833,0,1.25.208,1.25,1.146,0,2.813,0,2.813-2.813,2.813H6.672c-2.188,0-2.917.625-2.917,2.813v2.6a2.439,2.439,0,0,0,2.709,2.6,38.01,38.01,0,0,1,4.9.1,14.124,14.124,0,0,1,4.063,1.25,3.993,3.993,0,0,1,2.188,3.959v4.792a5.891,5.891,0,0,1-5.522,5.73c-3.855.1-7.71,0-11.564,0A.939.939,0,0,1,0,28.313Z" transform="translate(0 0.025)" fill="#fff"/>
    <path id="Path_1937" data-name="Path 1937" d="M74.681,23c.625-1.563,1.042-2.709,1.459-3.855,2.084-5.834,4.167-11.564,6.251-17.4C82.7.913,83.12.5,84.058.6a27.168,27.168,0,0,0,2.917,0,7.118,7.118,0,0,1-.417,1.354c-2.813,7.814-5.73,15.628-8.543,23.546l-.313.938c-.729,1.771-1.459,2.4-2.917,2.4s-2.188-.625-2.813-2.292c-.938-2.6-1.875-5.105-2.813-7.71-2.084-5.626-4.167-11.356-6.147-16.982A8.451,8.451,0,0,1,62.7.7c1.354,0,2.5-.1,3.751,0,.313,0,.521.625.729,1.042l7.189,20C74.16,22.063,74.369,22.375,74.681,23Z" transform="translate(2.628 0.024)" fill="#fff"/>
    <path id="Path_1938" data-name="Path 1938" d="M45.3.7h3.751c0,.521.1.938.1,1.354V21.016c0,2.709.833,3.542,3.542,3.542h9.168c.938,0,1.25.313,1.146,1.146a23.476,23.476,0,0,0,0,2.709H51.865a6.156,6.156,0,0,1-6.147-3.959,6.46,6.46,0,0,1-.417-2.4V1.429C45.2,1.221,45.3,1.013,45.3.7Z" transform="translate(1.898 0.029)" fill="#fff"/>
    <path id="Path_1939" data-name="Path 1939" d="M132.085,0c.729.417,1.459.729,1.667,1.25a2.184,2.184,0,0,1-.208,1.771c-2.292,3.646-4.584,7.293-6.98,10.939a1.561,1.561,0,0,0,0,1.875c2.4,3.542,4.792,7.189,7.189,10.835.729,1.146.625,1.875-.417,2.5-.833.521-1.563.521-2.084-.417L122.813,15.94a1.563,1.563,0,0,1,0-1.875c2.709-4.272,5.522-8.543,8.231-12.815A3.933,3.933,0,0,1,132.085,0Z" transform="translate(5.13)" fill="#dd3b30"/>
  </g>
</svg>
